<svg width="18" height="19" viewBox="0 0 18 19" fill="none"
    xmlns="http://www.w3.org/2000/svg">
    <g clip-path="url(#clip0_58_35)">
        <path d="M3.97057 7.69885C4.70556 5.42668 6.79261 3.7864 9.25281 3.7864C10.5855 3.7864 11.6048 4.15127 12.6806 5.11819L15.3912 2.39159C13.7581 0.903893 11.608 0 9.25281 0C5.61501 0 2.46989 2.15442 0.956299 5.28902L3.97057 7.69885Z" fill="#DD4335"/>
        <path d="M3.97218 11.3062C3.78803 10.739 3.68626 10.1319 3.68626 9.50004C3.68626 8.86815 3.78641 8.26445 3.97056 7.69889L0.956295 5.28906C0.344073 6.55783 0 7.98747 0 9.50004C0 11.0126 0.344073 12.4423 0.956295 13.711L3.97218 11.3062Z" fill="#F1B71A"/>
        <path d="M17.8335 7.80342H9.1897V11.5119H14.144C13.9276 12.764 13.2443 13.7243 12.2977 14.3529L15.2425 16.7064C17.2891 14.7991 18.4554 11.759 17.8335 7.80176V7.80342Z" fill="#4779BD"/>
        <path d="M9.25281 18.9998C11.4965 18.9998 13.6385 18.2004 15.241 16.7061L12.2962 14.3527C11.4449 14.9182 10.3819 15.2151 9.25281 15.2151C6.79422 15.2151 4.70879 13.5781 3.97218 11.3076L0.956299 13.7125C2.46828 16.8471 5.61501 19.0015 9.25281 19.0015V18.9998Z" fill="#37A052"/>
    </g>
    <defs>
        <clipPath id="clip0_58_35">
            <rect width="18" height="19" fill="white"/>
        </clipPath>
    </defs>
</svg>
